<?xml version="1.0" encoding="UTF-8"?>
<svg xmlns="http://www.w3.org/2000/svg" viewBox="0 0 1024 1024">
  <defs>
    <style>
      .cls-1 {
        fill: #d09cfa;
      }

      .cls-1, .cls-2, .cls-3, .cls-4 {
        stroke: #00004a;
        stroke-miterlimit: 10;
        stroke-width: 10px;
      }

      .cls-2 {
        fill: #7b69ed;
      }

      .cls-5 {
        fill: #fff7e5;
      }

      .cls-5, .cls-6 {
        stroke-width: 0px;
      }

      .cls-6 {
        fill: #fff7e5;
      }

      .cls-3 {
        fill: #72cf20;
      }

      .cls-4 {
        fill: #ffb57c;
      }
    </style>
  </defs>
  <g id="bg">
    <rect class="cls-6" x="-2.86" y="-7.47" width="1033.12" height="1033.12"/>
  </g>
  <g id="artwork">
    <path class="cls-3" d="M752.52,711.9s59.15,63.35,158.96,8.84c0,0,11.43-57.93-67.05-129.27-88.63-80.57-89.14,117.66-89.14,117.66"/>
    <path class="cls-3" d="M203.67,653.19s-41.14,81.9-35.81,132.57c0,0,164.46,79.56,357.82-93.16s-199.34-124.95-199.34-124.95l-120.9,83.76"/>
    <path class="cls-5" d="M178.52,784.49s169.39,18.4,324.79-147.97l20.73,52.1s-160.38,157.84-345.52,95.87Z"/>
    <path class="cls-5" d="M776.81,677.86s29.91,61.49,123.05,42.88c0,0-73.14,42.54-141.14-7.75l18.09-35.14Z"/>
    <line class="cls-3" x1="322.78" y1="628.86" x2="168.68" y2="786.14"/>
    <line class="cls-3" x1="781.14" y1="621.37" x2="911.48" y2="720.75"/>
    <path class="cls-2" d="M528.45,585.68s-36.03,74.18-119.45,77.04c-67.61,2.32-91.8-36.12-90.96-46.29.12-1.45-2.49-2.22-3.71-1.43-20.78,13.41-143.59,86.35-191.81-22-33.42-75.1,53.75-120.2,73.64-126.23,1.49-.45,1.69-2.46.33-3.21-18.13-9.86-90.21-56.15-30.35-141.99,42.29-60.66,126.29-16,126.29-18.86s-21.72-142.28,132.57-142.29c118.38,0,106.66,106.11,103.88,123.8-.19,1.19.85,2.21,2.04,1.99,16.32-3.04,108.92-16.83,137.51,54.78,31.39,78.63-10.13,120.15-10.13,120.15l-129.84,124.52Z"/>
    <path class="cls-1" d="M531.21,590.24c.53-.6.59-1.48.13-2.14-5.14-7.46-38.5-47.61,2.21-93.24,37.22-41.71,74.01-18.45,83.98-10.79,1.14.88,2.79.07,2.81-1.37.13-14.72,4.44-67.61,59.5-70.89,54.72-3.26,67.11,36.37,69.55,47.93.28,1.31,1.86,1.83,2.86.94,8.08-7.08,33.93-21.95,65.24.9,39.31,28.7,42.92,74.41,39.87,104.89s-17.78,52.57-42.67,57.9c-15.67,3.36-26.49-.12-31.43-4.08-.87-.7-2.16-.05-2.12,1.07.53,14.89,7.35,75.64-36.92,95.01-36.57,16-74.57,3.87-84.97-18.36-.62-1.33-2.5-1.32-3.15,0-6.54,13.34-78.93,45.6-134.93-9.64-45.18-44.56,3.35-90.56,10.03-98.14Z"/>
    <path class="cls-4" d="M667.71,552.38s-38.34,8.29-37.21,35.25c1.13,26.96,26.03,28.71,48.67,24.12s50.97-25.35,30.29-49.38c-14.77-17.16-41.74-9.99-41.74-9.99Z"/>
    <path class="cls-4" d="M377.91,379.89c36.29-14.95,87.28-7.57,106.9,23.14,19.3,30.22-2.16,57.27-33.78,76.19-27.6,16.52-86.82,42.83-125.2,12.44-34.16-27.05-17.76-83.01,52.09-111.78Z"/>
  </g>
</svg>